<?xml version="1.0" standalone="no"?>
<!DOCTYPE svg PUBLIC "-//W3C//DTD SVG 20010904//EN"
 "http://www.w3.org/TR/2001/REC-SVG-20010904/DTD/svg10.dtd">
<svg version="1.0" xmlns="http://www.w3.org/2000/svg"
 width="512.000000pt" height="512.000000pt" viewBox="0 0 512.000000 512.000000"
 preserveAspectRatio="xMidYMid meet">
<metadata>
Created by potrace 1.15, written by Peter Selinger 2001-2017
</metadata>
<g transform="translate(0.000000,512.000000) scale(0.100000,-0.100000)"
fill="#000000" stroke="none">
<path d="M2457 4119 c-119 -17 -177 -76 -177 -178 0 -47 14 -87 106 -298 108
-248 131 -283 179 -283 12 0 32 11 44 24 12 13 70 131 128 262 93 213 105 245
105 297 0 104 -52 155 -182 176 -74 12 -120 12 -203 0z"/>
<path d="M1946 3835 c-45 -24 -183 -144 -306 -268 -97 -96 -157 -166 -290
-334 l-25 -32 -285 101 c-249 87 -294 100 -355 102 -62 1 -70 -1 -73 -19 -7
-32 59 -222 90 -260 44 -52 146 -97 319 -140 84 -21 155 -39 157 -40 1 -1 -13
-51 -32 -111 -20 -60 -38 -122 -41 -137 l-6 -29 -362 3 c-358 3 -363 3 -420
-20 -79 -31 -108 -59 -188 -177 -72 -108 -86 -155 -52 -169 59 -24 98 -23 556
10 264 19 481 34 483 32 1 -1 14 -37 28 -80 14 -43 43 -112 64 -154 l39 -76
-227 -113 c-217 -107 -277 -147 -267 -178 2 -6 39 -30 83 -54 73 -40 83 -42
140 -39 73 5 133 31 286 123 l111 67 26 -30 c208 -242 349 -378 572 -548 67
-52 166 -135 221 -184 98 -90 111 -98 136 -83 28 18 30 71 11 300 -20 245 -31
294 -88 383 -15 25 -52 66 -82 91 -182 156 -226 197 -290 273 -175 208 -252
417 -219 595 34 188 130 343 343 554 174 174 197 210 197 320 0 93 -51 255
-96 303 -27 29 -38 33 -80 33 -27 0 -62 -7 -78 -15z"/>
<path d="M3017 3818 c-46 -49 -97 -209 -97 -304 0 -110 23 -146 197 -320 213
-211 309 -366 343 -554 33 -178 -44 -387 -219 -595 -64 -76 -108 -117 -290
-273 -30 -25 -67 -66 -82 -91 -58 -90 -69 -139 -88 -385 -18 -228 -16 -280 11
-298 25 -15 38 -7 136 83 55 49 154 132 221 184 223 170 364 306 572 548 l26
30 111 -67 c153 -92 213 -118 286 -123 57 -3 67 -1 140 39 44 24 81 48 83 54
10 31 -50 71 -267 178 l-227 113 39 76 c21 42 50 111 64 154 14 43 27 79 28
80 2 2 219 -13 483 -32 458 -33 497 -34 556 -10 34 14 20 61 -52 169 -80 118
-109 146 -188 177 -57 23 -62 23 -420 20 l-362 -3 -6 29 c-3 15 -21 77 -41
137 -19 60 -33 110 -32 111 2 1 73 19 157 40 173 43 275 88 319 140 31 38 97
227 91 260 -3 16 -13 21 -55 23 -56 3 -73 -2 -431 -126 l-231 -80 -70 91
c-126 165 -348 391 -500 509 -46 36 -62 42 -113 46 -57 4 -61 3 -92 -30z"/>
<path d="M2352 2654 c-92 -48 -173 -91 -179 -96 -15 -12 -17 -56 -4 -76 5 -8
82 -52 172 -99 225 -117 218 -117 444 2 169 89 170 90 173 126 2 21 -3 40 -10
47 -7 6 -88 49 -180 96 -130 67 -176 86 -208 86 -32 0 -78 -19 -208 -86z"/>
</g>
</svg>
